<?xml version="1.0" encoding="UTF-8" standalone="no"?>
<!DOCTYPE svg PUBLIC "-//W3C//DTD SVG 1.1//EN" "http://www.w3.org/Graphics/SVG/1.1/DTD/svg11.dtd">
<svg xmlns="http://www.w3.org/2000/svg" version="1.1" viewBox="0.00 0.00 57.00 51.00">
<g stroke-width="2.00" fill="none" stroke-linecap="butt">
<path stroke="#83d784" vector-effect="non-scaling-stroke" d="
  M 17.25 40.38
  A 4.02 4.02 0.0 0 0 13.23 36.36
  A 4.02 4.02 0.0 0 0 9.21 40.38
  A 4.02 4.02 0.0 0 0 13.23 44.40
  A 4.02 4.02 0.0 0 0 17.25 40.38"
/>
<path stroke="#83d784" vector-effect="non-scaling-stroke" d="
  M 36.74 40.40
  A 4.02 4.02 0.0 0 0 32.72 36.38
  A 4.02 4.02 0.0 0 0 28.70 40.40
  A 4.02 4.02 0.0 0 0 32.72 44.42
  A 4.02 4.02 0.0 0 0 36.74 40.40"
/>
<path stroke="#83d784" vector-effect="non-scaling-stroke" d="
  M 14.98 40.42
  A 1.69 1.69 0.0 0 0 13.29 38.73
  A 1.69 1.69 0.0 0 0 11.60 40.42
  A 1.69 1.69 0.0 0 0 13.29 42.11
  A 1.69 1.69 0.0 0 0 14.98 40.42"
/>
<path stroke="#83d784" vector-effect="non-scaling-stroke" d="
  M 34.38 40.36
  A 1.75 1.75 0.0 0 0 32.63 38.61
  A 1.75 1.75 0.0 0 0 30.88 40.36
  A 1.75 1.75 0.0 0 0 32.63 42.11
  A 1.75 1.75 0.0 0 0 34.38 40.36"
/>
</g>
<path fill="#06ae09" d="
  M 57.00 1.83
  L 57.00 3.71
  L 50.03 4.08
  Q 49.51 4.10 49.20 4.52
  Q 47.94 6.17 47.47 7.44
  Q 44.31 16.02 39.30 31.31
  Q 38.86 32.65 37.77 33.54
  Q 37.38 33.85 37.23 34.33
  Q 36.63 36.22 38.00 37.64
  Q 38.35 38.01 38.43 38.50
  Q 38.97 41.82 37.25 44.52
  A 1.09 1.08 -67.3 0 0 37.92 46.17
  L 47.62 48.35
  Q 48.31 48.50 48.05 49.16
  C 47.67 50.08 46.74 50.37 45.75 50.13
  Q 23.16 44.56 0.49 49.91
  Q 0.27 49.96 0.00 49.68
  L 0.00 47.48
  L 8.37 45.85
  Q 9.02 45.72 8.67 45.16
  C 4.38 38.14 8.25 33.68 15.64 33.76
  Q 24.25 33.85 32.86 33.60
  C 35.48 33.53 36.95 32.41 37.32 29.89
  Q 37.38 29.50 36.98 29.50
  L 11.14 29.50
  A 3.11 3.10 -7.5 0 1 8.14 27.21
  L 3.14 8.84
  A 1.76 1.75 78.3 0 1 4.58 6.64
  Q 7.08 6.29 10.00 6.28
  Q 26.06 6.24 42.12 6.25
  Q 42.95 6.25 42.90 7.08
  L 42.83 8.21
  A 0.57 0.57 0.0 0 1 42.26 8.75
  L 6.51 8.75
  Q 5.67 8.75 5.89 9.56
  L 10.37 26.05
  A 1.29 1.28 82.3 0 0 11.61 27.00
  L 38.26 27.00
  Q 38.60 27.00 38.71 26.67
  L 39.98 22.65
  A 0.48 0.47 -81.4 0 0 39.53 22.03
  Q 26.59 21.97 13.76 21.90
  Q 12.29 21.89 12.57 20.50
  A 1.25 1.25 0.0 0 1 13.80 19.49
  L 40.16 19.52
  Q 40.85 19.52 41.12 18.88
  L 42.12 16.45
  Q 42.41 15.75 41.65 15.75
  L 11.04 15.75
  A 1.26 1.26 0.0 0 1 9.90 15.03
  Q 9.38 13.96 10.28 13.35
  Q 10.68 13.08 11.42 13.08
  Q 26.97 13.00 42.53 13.01
  A 0.80 0.79 -78.1 0 0 43.26 12.53
  Q 44.59 9.51 45.60 6.43
  C 47.26 1.38 52.11 0.59 57.00 1.83
  Z
  M 26.84 36.23
  A 0.11 0.11 0.0 0 0 26.73 36.09
  L 19.59 36.07
  A 0.57 0.57 0.0 0 0 19.04 36.78
  L 20.17 41.08
  A 0.51 0.49 52.2 0 1 20.13 41.44
  L 18.61 44.38
  A 0.43 0.42 13.6 0 0 18.99 45.00
  L 26.68 44.99
  A 0.29 0.28 81.6 0 0 26.95 44.62
  Q 25.66 40.22 26.84 36.23
  Z
  M 17.25 40.38
  A 4.02 4.02 0.0 0 0 13.23 36.36
  A 4.02 4.02 0.0 0 0 9.21 40.38
  A 4.02 4.02 0.0 0 0 13.23 44.40
  A 4.02 4.02 0.0 0 0 17.25 40.38
  Z
  M 36.74 40.40
  A 4.02 4.02 0.0 0 0 32.72 36.38
  A 4.02 4.02 0.0 0 0 28.70 40.40
  A 4.02 4.02 0.0 0 0 32.72 44.42
  A 4.02 4.02 0.0 0 0 36.74 40.40
  Z"
/>
<path fill="#ffffff" d="
  M 17.25 40.38
  A 4.02 4.02 0.0 0 1 13.23 44.40
  A 4.02 4.02 0.0 0 1 9.21 40.38
  A 4.02 4.02 0.0 0 1 13.23 36.36
  A 4.02 4.02 0.0 0 1 17.25 40.38
  Z
  M 14.98 40.42
  A 1.69 1.69 0.0 0 0 13.29 38.73
  A 1.69 1.69 0.0 0 0 11.60 40.42
  A 1.69 1.69 0.0 0 0 13.29 42.11
  A 1.69 1.69 0.0 0 0 14.98 40.42
  Z"
/>
<path fill="#ffffff" d="
  M 36.74 40.40
  A 4.02 4.02 0.0 0 1 32.72 44.42
  A 4.02 4.02 0.0 0 1 28.70 40.40
  A 4.02 4.02 0.0 0 1 32.72 36.38
  A 4.02 4.02 0.0 0 1 36.74 40.40
  Z
  M 34.38 40.36
  A 1.75 1.75 0.0 0 0 32.63 38.61
  A 1.75 1.75 0.0 0 0 30.88 40.36
  A 1.75 1.75 0.0 0 0 32.63 42.11
  A 1.75 1.75 0.0 0 0 34.38 40.36
  Z"
/>
<circle fill="#06ae09" cx="32.63" cy="40.36" r="1.75"/>
<circle fill="#06ae09" cx="13.29" cy="40.42" r="1.69"/>
</svg>
